<svg xmlns="http://www.w3.org/2000/svg" width="720" height="460" font-family="sans-serif" font-size="13">
<rect width="720" height="460" fill="white"/>
<line x1="64" y1="408" x2="580" y2="408" stroke="#888"/>
<line x1="64" y1="408" x2="64" y2="34" stroke="#888"/>
<text x="322.0" y="444" text-anchor="middle">x</text>
<text x="322.0" y="20" text-anchor="middle">convection-diffusion layer,  eps=0.05  (delta found = 0.050)</text>
<polyline fill="none" stroke="#111" stroke-width="3" points="64.0,408.0 65.0,408.0 66.1,408.0 67.1,408.0 68.1,408.0 69.2,408.0 70.2,408.0 71.2,408.0 72.3,408.0 73.3,408.0 74.3,408.0 75.4,408.0 76.4,408.0 77.4,408.0 78.4,408.0 79.5,408.0 80.5,408.0 81.5,408.0 82.6,408.0 83.6,408.0 84.6,408.0 85.7,408.0 86.7,408.0 87.7,408.0 88.8,408.0 89.8,408.0 90.8,408.0 91.9,408.0 92.9,408.0 93.9,408.0 95.0,408.0 96.0,408.0 97.0,408.0 98.1,408.0 99.1,408.0 100.1,408.0 101.2,408.0 102.2,408.0 103.2,408.0 104.2,408.0 105.3,408.0 106.3,408.0 107.3,408.0 108.4,408.0 109.4,408.0 110.4,408.0 111.5,408.0 112.5,408.0 113.5,408.0 114.6,408.0 115.6,408.0 116.6,408.0 117.7,408.0 118.7,408.0 119.7,408.0 120.8,408.0 121.8,408.0 122.8,408.0 123.9,408.0 124.9,408.0 125.9,408.0 127.0,408.0 128.0,408.0 129.0,408.0 130.0,408.0 131.1,408.0 132.1,408.0 133.1,408.0 134.2,408.0 135.2,408.0 136.2,408.0 137.3,408.0 138.3,408.0 139.3,408.0 140.4,408.0 141.4,408.0 142.4,408.0 143.5,408.0 144.5,408.0 145.5,408.0 146.6,408.0 147.6,408.0 148.6,408.0 149.7,408.0 150.7,408.0 151.7,408.0 152.8,408.0 153.8,408.0 154.8,408.0 155.8,408.0 156.9,408.0 157.9,408.0 158.9,408.0 160.0,408.0 161.0,408.0 162.0,408.0 163.1,408.0 164.1,408.0 165.1,408.0 166.2,408.0 167.2,408.0 168.2,408.0 169.3,408.0 170.3,408.0 171.3,408.0 172.4,408.0 173.4,408.0 174.4,408.0 175.5,408.0 176.5,408.0 177.5,408.0 178.6,408.0 179.6,408.0 180.6,408.0 181.6,408.0 182.7,408.0 183.7,408.0 184.7,408.0 185.8,408.0 186.8,408.0 187.8,408.0 188.9,408.0 189.9,408.0 190.9,408.0 192.0,408.0 193.0,408.0 194.0,408.0 195.1,408.0 196.1,408.0 197.1,408.0 198.2,408.0 199.2,408.0 200.2,408.0 201.3,408.0 202.3,408.0 203.3,408.0 204.4,408.0 205.4,408.0 206.4,408.0 207.4,408.0 208.5,408.0 209.5,408.0 210.5,408.0 211.6,408.0 212.6,408.0 213.6,408.0 214.7,408.0 215.7,408.0 216.7,408.0 217.8,408.0 218.8,408.0 219.8,408.0 220.9,408.0 221.9,408.0 222.9,408.0 224.0,408.0 225.0,408.0 226.0,408.0 227.1,408.0 228.1,408.0 229.1,408.0 230.2,408.0 231.2,408.0 232.2,408.0 233.2,408.0 234.3,408.0 235.3,408.0 236.3,408.0 237.4,408.0 238.4,408.0 239.4,408.0 240.5,408.0 241.5,408.0 242.5,408.0 243.6,408.0 244.6,408.0 245.6,408.0 246.7,408.0 247.7,408.0 248.7,408.0 249.8,408.0 250.8,408.0 251.8,408.0 252.9,408.0 253.9,408.0 254.9,408.0 256.0,408.0 257.0,408.0 258.0,408.0 259.0,408.0 260.1,408.0 261.1,408.0 262.1,408.0 263.2,408.0 264.2,408.0 265.2,408.0 266.3,408.0 267.3,408.0 268.3,408.0 269.4,408.0 270.4,408.0 271.4,408.0 272.5,408.0 273.5,408.0 274.5,408.0 275.6,408.0 276.6,408.0 277.6,408.0 278.7,408.0 279.7,408.0 280.7,408.0 281.8,408.0 282.8,408.0 283.8,408.0 284.8,408.0 285.9,408.0 286.9,408.0 287.9,408.0 289.0,408.0 290.0,408.0 291.0,408.0 292.1,408.0 293.1,408.0 294.1,408.0 295.2,408.0 296.2,408.0 297.2,408.0 298.3,408.0 299.3,408.0 300.3,408.0 301.4,408.0 302.4,408.0 303.4,408.0 304.5,408.0 305.5,408.0 306.5,408.0 307.6,408.0 308.6,408.0 309.6,408.0 310.6,408.0 311.7,408.0 312.7,408.0 313.7,408.0 314.8,408.0 315.8,408.0 316.8,408.0 317.9,408.0 318.9,408.0 319.9,408.0 321.0,408.0 322.0,408.0 323.0,408.0 324.1,408.0 325.1,408.0 326.1,408.0 327.2,408.0 328.2,408.0 329.2,408.0 330.3,408.0 331.3,408.0 332.3,408.0 333.4,408.0 334.4,408.0 335.4,408.0 336.4,408.0 337.5,408.0 338.5,408.0 339.5,408.0 340.6,408.0 341.6,408.0 342.6,408.0 343.7,408.0 344.7,408.0 345.7,408.0 346.8,408.0 347.8,408.0 348.8,408.0 349.9,408.0 350.9,407.9 351.9,407.9 353.0,407.9 354.0,407.9 355.0,407.9 356.1,407.9 357.1,407.9 358.1,407.9 359.2,407.9 360.2,407.9 361.2,407.9 362.2,407.9 363.3,407.9 364.3,407.9 365.3,407.9 366.4,407.9 367.4,407.9 368.4,407.9 369.5,407.9 370.5,407.9 371.5,407.9 372.6,407.9 373.6,407.9 374.6,407.9 375.7,407.9 376.7,407.9 377.7,407.9 378.8,407.8 379.8,407.8 380.8,407.8 381.9,407.8 382.9,407.8 383.9,407.8 385.0,407.8 386.0,407.8 387.0,407.8 388.0,407.8 389.1,407.8 390.1,407.8 391.1,407.8 392.2,407.7 393.2,407.7 394.2,407.7 395.3,407.7 396.3,407.7 397.3,407.7 398.4,407.7 399.4,407.7 400.4,407.6 401.5,407.6 402.5,407.6 403.5,407.6 404.6,407.6 405.6,407.6 406.6,407.5 407.7,407.5 408.7,407.5 409.7,407.5 410.8,407.5 411.8,407.4 412.8,407.4 413.8,407.4 414.9,407.4 415.9,407.4 416.9,407.3 418.0,407.3 419.0,407.3 420.0,407.2 421.1,407.2 422.1,407.2 423.1,407.1 424.2,407.1 425.2,407.1 426.2,407.0 427.3,407.0 428.3,407.0 429.3,406.9 430.4,406.9 431.4,406.8 432.4,406.8 433.5,406.7 434.5,406.7 435.5,406.6 436.6,406.6 437.6,406.5 438.6,406.4 439.6,406.4 440.7,406.3 441.7,406.2 442.7,406.2 443.8,406.1 444.8,406.0 445.8,405.9 446.9,405.9 447.9,405.8 448.9,405.7 450.0,405.6 451.0,405.5 452.0,405.4 453.1,405.3 454.1,405.2 455.1,405.0 456.2,404.9 457.2,404.8 458.2,404.7 459.3,404.5 460.3,404.4 461.3,404.2 462.4,404.1 463.4,403.9 464.4,403.8 465.4,403.6 466.5,403.4 467.5,403.2 468.5,403.0 469.6,402.8 470.6,402.6 471.6,402.4 472.7,402.2 473.7,401.9 474.7,401.7 475.8,401.4 476.8,401.1 477.8,400.9 478.9,400.6 479.9,400.3 480.9,400.0 482.0,399.6 483.0,399.3 484.0,398.9 485.1,398.6 486.1,398.2 487.1,397.8 488.2,397.4 489.2,396.9 490.2,396.5 491.2,396.0 492.3,395.5 493.3,395.0 494.3,394.5 495.4,393.9 496.4,393.4 497.4,392.8 498.5,392.1 499.5,391.5 500.5,390.8 501.6,390.1 502.6,389.4 503.6,388.6 504.7,387.8 505.7,387.0 506.7,386.1 507.8,385.3 508.8,384.3 509.8,383.4 510.9,382.4 511.9,381.3 512.9,380.2 514.0,379.1 515.0,377.9 516.0,376.7 517.0,375.4 518.1,374.1 519.1,372.7 520.1,371.2 521.2,369.7 522.2,368.2 523.2,366.6 524.3,364.9 525.3,363.1 526.3,361.3 527.4,359.4 528.4,357.4 529.4,355.3 530.5,353.2 531.5,350.9 532.5,348.6 533.6,346.2 534.6,343.7 535.6,341.0 536.7,338.3 537.7,335.5 538.7,332.5 539.8,329.4 540.8,326.2 541.8,322.9 542.8,319.4 543.9,315.8 544.9,312.0 545.9,308.1 547.0,304.0 548.0,299.8 549.0,295.4 550.1,290.8 551.1,286.0 552.1,281.0 553.2,275.8 554.2,270.4 555.2,264.8 556.3,259.0 557.3,252.9 558.3,246.5 559.4,240.0 560.4,233.1 561.4,226.0 562.5,218.5 563.5,210.8 564.5,202.7 565.6,194.4 566.6,185.6 567.6,176.6 568.6,167.1 569.7,157.3 570.7,147.1 571.7,136.4 572.8,125.3 573.8,113.8 574.8,101.8 575.9,89.3 576.9,76.3 577.9,62.8 579.0,48.7 580.0,34.0"/>
<polyline fill="none" stroke="#d62728" stroke-width="2" points="64.0,408.0 65.0,405.0 66.1,402.0 67.1,399.1 68.1,396.2 69.2,393.3 70.2,390.5 71.2,387.7 72.3,384.9 73.3,382.2 74.3,379.5 75.4,376.8 76.4,374.2 77.4,371.6 78.4,369.0 79.5,366.5 80.5,364.0 81.5,361.5 82.6,359.1 83.6,356.7 84.6,354.3 85.7,352.0 86.7,349.7 87.7,347.4 88.8,345.2 89.8,343.0 90.8,340.8 91.9,338.6 92.9,336.5 93.9,334.4 95.0,332.4 96.0,330.3 97.0,328.3 98.1,326.4 99.1,324.4 100.1,322.5 101.2,320.7 102.2,318.8 103.2,317.0 104.2,315.2 105.3,313.5 106.3,311.7 107.3,310.0 108.4,308.3 109.4,306.7 110.4,305.1 111.5,303.5 112.5,301.9 113.5,300.4 114.6,298.9 115.6,297.4 116.6,296.0 117.7,294.6 118.7,293.2 119.7,291.8 120.8,290.4 121.8,289.1 122.8,287.8 123.9,286.6 124.9,285.3 125.9,284.1 127.0,282.9 128.0,281.8 129.0,280.7 130.0,279.5 131.1,278.5 132.1,277.4 133.1,276.4 134.2,275.4 135.2,274.4 136.2,273.4 137.3,272.5 138.3,271.6 139.3,270.7 140.4,269.8 141.4,269.0 142.4,268.2 143.5,267.4 144.5,266.6 145.5,265.8 146.6,265.1 147.6,264.4 148.6,263.7 149.7,263.1 150.7,262.4 151.7,261.8 152.8,261.2 153.8,260.7 154.8,260.1 155.8,259.6 156.9,259.1 157.9,258.6 158.9,258.1 160.0,257.7 161.0,257.3 162.0,256.9 163.1,256.5 164.1,256.1 165.1,255.8 166.2,255.5 167.2,255.1 168.2,254.9 169.3,254.6 170.3,254.4 171.3,254.1 172.4,253.9 173.4,253.7 174.4,253.6 175.5,253.4 176.5,253.3 177.5,253.2 178.6,253.1 179.6,253.0 180.6,252.9 181.6,252.9 182.7,252.9 183.7,252.9 184.7,252.9 185.8,252.9 186.8,252.9 187.8,253.0 188.9,253.1 189.9,253.2 190.9,253.3 192.0,253.4 193.0,253.5 194.0,253.7 195.1,253.8 196.1,254.0 197.1,254.2 198.2,254.4 199.2,254.7 200.2,254.9 201.3,255.2 202.3,255.5 203.3,255.7 204.4,256.0 205.4,256.4 206.4,256.7 207.4,257.0 208.5,257.4 209.5,257.8 210.5,258.1 211.6,258.5 212.6,258.9 213.6,259.4 214.7,259.8 215.7,260.2 216.7,260.7 217.8,261.2 218.8,261.7 219.8,262.1 220.9,262.7 221.9,263.2 222.9,263.7 224.0,264.2 225.0,264.8 226.0,265.3 227.1,265.9 228.1,266.5 229.1,267.1 230.2,267.7 231.2,268.3 232.2,268.9 233.2,269.6 234.3,270.2 235.3,270.8 236.3,271.5 237.4,272.2 238.4,272.9 239.4,273.5 240.5,274.2 241.5,274.9 242.5,275.7 243.6,276.4 244.6,277.1 245.6,277.8 246.7,278.6 247.7,279.3 248.7,280.1 249.8,280.9 250.8,281.6 251.8,282.4 252.9,283.2 253.9,284.0 254.9,284.8 256.0,285.6 257.0,286.4 258.0,287.2 259.0,288.0 260.1,288.9 261.1,289.7 262.1,290.5 263.2,291.4 264.2,292.2 265.2,293.1 266.3,293.9 267.3,294.8 268.3,295.7 269.4,296.5 270.4,297.4 271.4,298.3 272.5,299.2 273.5,300.1 274.5,301.0 275.6,301.9 276.6,302.8 277.6,303.7 278.7,304.6 279.7,305.5 280.7,306.4 281.8,307.3 282.8,308.2 283.8,309.1 284.8,310.0 285.9,310.9 286.9,311.9 287.9,312.8 289.0,313.7 290.0,314.6 291.0,315.6 292.1,316.5 293.1,317.4 294.1,318.3 295.2,319.3 296.2,320.2 297.2,321.1 298.3,322.0 299.3,323.0 300.3,323.9 301.4,324.8 302.4,325.7 303.4,326.7 304.5,327.6 305.5,328.5 306.5,329.4 307.6,330.4 308.6,331.3 309.6,332.2 310.6,333.1 311.7,334.0 312.7,334.9 313.7,335.8 314.8,336.7 315.8,337.6 316.8,338.5 317.9,339.4 318.9,340.3 319.9,341.2 321.0,342.1 322.0,343.0 323.0,343.8 324.1,344.7 325.1,345.6 326.1,346.4 327.2,347.3 328.2,348.1 329.2,349.0 330.3,349.8 331.3,350.7 332.3,351.5 333.4,352.3 334.4,353.2 335.4,354.0 336.4,354.8 337.5,355.6 338.5,356.4 339.5,357.2 340.6,358.0 341.6,358.8 342.6,359.5 343.7,360.3 344.7,361.1 345.7,361.8 346.8,362.5 347.8,363.3 348.8,364.0 349.9,364.7 350.9,365.4 351.9,366.1 353.0,366.8 354.0,367.5 355.0,368.2 356.1,368.9 357.1,369.5 358.1,370.2 359.2,370.8 360.2,371.5 361.2,372.1 362.2,372.7 363.3,373.3 364.3,373.9 365.3,374.5 366.4,375.0 367.4,375.6 368.4,376.1 369.5,376.7 370.5,377.2 371.5,377.7 372.6,378.2 373.6,378.7 374.6,379.2 375.7,379.7 376.7,380.1 377.7,380.6 378.8,381.0 379.8,381.4 380.8,381.8 381.9,382.2 382.9,382.6 383.9,383.0 385.0,383.4 386.0,383.7 387.0,384.0 388.0,384.3 389.1,384.6 390.1,384.9 391.1,385.2 392.2,385.5 393.2,385.7 394.2,385.9 395.3,386.2 396.3,386.4 397.3,386.5 398.4,386.7 399.4,386.9 400.4,387.0 401.5,387.1 402.5,387.2 403.5,387.3 404.6,387.4 405.6,387.5 406.6,387.5 407.7,387.5 408.7,387.5 409.7,387.5 410.8,387.5 411.8,387.4 412.8,387.4 413.8,387.3 414.9,387.2 415.9,387.1 416.9,387.0 418.0,386.8 419.0,386.6 420.0,386.5 421.1,386.3 422.1,386.0 423.1,385.8 424.2,385.5 425.2,385.2 426.2,384.9 427.3,384.6 428.3,384.3 429.3,383.9 430.4,383.5 431.4,383.1 432.4,382.7 433.5,382.3 434.5,381.8 435.5,381.3 436.6,380.8 437.6,380.3 438.6,379.7 439.6,379.2 440.7,378.6 441.7,377.9 442.7,377.3 443.8,376.7 444.8,376.0 445.8,375.3 446.9,374.5 447.9,373.8 448.9,373.0 450.0,372.2 451.0,371.4 452.0,370.6 453.1,369.7 454.1,368.8 455.1,367.9 456.2,367.0 457.2,366.0 458.2,365.0 459.3,364.0 460.3,363.0 461.3,361.9 462.4,360.8 463.4,359.7 464.4,358.6 465.4,357.4 466.5,356.3 467.5,355.0 468.5,353.8 469.6,352.5 470.6,351.3 471.6,349.9 472.7,348.6 473.7,347.2 474.7,345.8 475.8,344.4 476.8,343.0 477.8,341.5 478.9,340.0 479.9,338.4 480.9,336.9 482.0,335.3 483.0,333.7 484.0,332.0 485.1,330.4 486.1,328.7 487.1,326.9 488.2,325.2 489.2,323.4 490.2,321.6 491.2,319.7 492.3,317.8 493.3,315.9 494.3,314.0 495.4,312.0 496.4,310.0 497.4,308.0 498.5,306.0 499.5,303.9 500.5,301.8 501.6,299.6 502.6,297.4 503.6,295.2 504.7,293.0 505.7,290.7 506.7,288.4 507.8,286.1 508.8,283.7 509.8,281.3 510.9,278.9 511.9,276.4 512.9,273.9 514.0,271.4 515.0,268.8 516.0,266.2 517.0,263.6 518.1,260.9 519.1,258.2 520.1,255.5 521.2,252.7 522.2,249.9 523.2,247.1 524.3,244.2 525.3,241.3 526.3,238.4 527.4,235.4 528.4,232.4 529.4,229.3 530.5,226.3 531.5,223.2 532.5,220.0 533.6,216.8 534.6,213.6 535.6,210.3 536.7,207.0 537.7,203.7 538.7,200.4 539.8,197.0 540.8,193.5 541.8,190.0 542.8,186.5 543.9,183.0 544.9,179.4 545.9,175.8 547.0,172.1 548.0,168.4 549.0,164.7 550.1,160.9 551.1,157.1 552.1,153.2 553.2,149.3 554.2,145.4 555.2,141.4 556.3,137.4 557.3,133.4 558.3,129.3 559.4,125.1 560.4,121.0 561.4,116.8 562.5,112.5 563.5,108.2 564.5,103.9 565.6,99.5 566.6,95.1 567.6,90.7 568.6,86.2 569.7,81.6 570.7,77.1 571.7,72.4 572.8,67.8 573.8,63.1 574.8,58.3 575.9,53.6 576.9,48.7 577.9,43.9 579.0,39.0 580.0,34.0"/>
<polyline fill="none" stroke="#1f77b4" stroke-width="2" points="64.0,408.0 65.0,400.6 66.1,393.3 67.1,386.1 68.1,379.0 69.2,372.0 70.2,365.1 71.2,358.2 72.3,351.4 73.3,344.7 74.3,338.1 75.4,331.6 76.4,325.2 77.4,318.8 78.4,312.6 79.5,306.4 80.5,300.3 81.5,294.3 82.6,288.3 83.6,282.5 84.6,276.7 85.7,271.0 86.7,265.4 87.7,259.8 88.8,254.4 89.8,249.0 90.8,243.7 91.9,238.5 92.9,233.3 93.9,228.3 95.0,223.3 96.0,218.4 97.0,213.5 98.1,208.8 99.1,204.1 100.1,199.5 101.2,194.9 102.2,190.5 103.2,186.1 104.2,181.8 105.3,177.5 106.3,173.4 107.3,169.3 108.4,165.3 109.4,161.3 110.4,157.4 111.5,153.6 112.5,149.9 113.5,146.2 114.6,142.6 115.6,139.1 116.6,135.6 117.7,132.3 118.7,128.9 119.7,125.7 120.8,122.5 121.8,119.4 122.8,116.3 123.9,113.4 124.9,110.4 125.9,107.6 127.0,104.8 128.0,102.1 129.0,99.4 130.0,96.9 131.1,94.3 132.1,91.9 133.1,89.5 134.2,87.1 135.2,84.9 136.2,82.7 137.3,80.5 138.3,78.4 139.3,76.4 140.4,74.5 141.4,72.5 142.4,70.7 143.5,68.9 144.5,67.2 145.5,65.5 146.6,63.9 147.6,62.4 148.6,60.9 149.7,59.5 150.7,58.1 151.7,56.8 152.8,55.5 153.8,54.3 154.8,53.2 155.8,52.1 156.9,51.1 157.9,50.1 158.9,49.1 160.0,48.3 161.0,47.5 162.0,46.7 163.1,46.0 164.1,45.3 165.1,44.7 166.2,44.1 167.2,43.6 168.2,43.2 169.3,42.8 170.3,42.4 171.3,42.1 172.4,41.9 173.4,41.7 174.4,41.5 175.5,41.4 176.5,41.4 177.5,41.3 178.6,41.4 179.6,41.5 180.6,41.6 181.6,41.8 182.7,42.0 183.7,42.3 184.7,42.6 185.8,42.9 186.8,43.3 187.8,43.8 188.9,44.3 189.9,44.8 190.9,45.4 192.0,46.0 193.0,46.7 194.0,47.4 195.1,48.1 196.1,48.9 197.1,49.7 198.2,50.6 199.2,51.5 200.2,52.4 201.3,53.4 202.3,54.5 203.3,55.5 204.4,56.6 205.4,57.8 206.4,58.9 207.4,60.2 208.5,61.4 209.5,62.7 210.5,64.0 211.6,65.4 212.6,66.8 213.6,68.2 214.7,69.7 215.7,71.2 216.7,72.7 217.8,74.3 218.8,75.9 219.8,77.5 220.9,79.2 221.9,80.9 222.9,82.6 224.0,84.4 225.0,86.2 226.0,88.0 227.1,89.8 228.1,91.7 229.1,93.6 230.2,95.6 231.2,97.5 232.2,99.5 233.2,101.6 234.3,103.6 235.3,105.7 236.3,107.8 237.4,109.9 238.4,112.1 239.4,114.3 240.5,116.5 241.5,118.7 242.5,121.0 243.6,123.3 244.6,125.6 245.6,127.9 246.7,130.3 247.7,132.7 248.7,135.1 249.8,137.5 250.8,139.9 251.8,142.4 252.9,144.9 253.9,147.4 254.9,149.9 256.0,152.5 257.0,155.1 258.0,157.6 259.0,160.2 260.1,162.9 261.1,165.5 262.1,168.2 263.2,170.9 264.2,173.6 265.2,176.3 266.3,179.0 267.3,181.7 268.3,184.5 269.4,187.3 270.4,190.1 271.4,192.9 272.5,195.7 273.5,198.5 274.5,201.4 275.6,204.2 276.6,207.1 277.6,210.0 278.7,212.9 279.7,215.8 280.7,218.7 281.8,221.6 282.8,224.6 283.8,227.5 284.8,230.5 285.9,233.5 286.9,236.4 287.9,239.4 289.0,242.4 290.0,245.4 291.0,248.4 292.1,251.5 293.1,254.5 294.1,257.5 295.2,260.6 296.2,263.6 297.2,266.6 298.3,269.7 299.3,272.8 300.3,275.8 301.4,278.9 302.4,282.0 303.4,285.0 304.5,288.1 305.5,291.2 306.5,294.3 307.6,297.3 308.6,300.4 309.6,303.5 310.6,306.6 311.7,309.7 312.7,312.8 313.7,315.8 314.8,318.9 315.8,322.0 316.8,325.1 317.9,328.2 318.9,331.2 319.9,334.3 321.0,337.4 322.0,340.5 323.0,343.5 324.1,346.6 325.1,349.6 326.1,352.7 327.2,355.7 328.2,358.8 329.2,361.8 330.3,364.8 331.3,367.8 332.3,370.8 333.4,373.9 334.4,376.8 335.4,379.8 336.4,382.8 337.5,385.8 338.5,388.7 339.5,391.7 340.6,394.6 341.6,397.6 342.6,400.5 343.7,403.4 344.7,406.3 345.7,409.2 346.8,412.1 347.8,414.9 348.8,417.8 349.9,420.6 350.9,423.4 351.9,426.2 353.0,429.0 354.0,431.8 355.0,434.6 356.1,437.3 357.1,440.0 358.1,442.8 359.2,445.5 360.2,448.1 361.2,450.8 362.2,453.4 363.3,456.1 364.3,458.7 365.3,461.3 366.4,463.8 367.4,466.4 368.4,468.9 369.5,471.4 370.5,473.9 371.5,476.4 372.6,478.9 373.6,481.3 374.6,483.7 375.7,486.1 376.7,488.4 377.7,490.8 378.8,493.1 379.8,495.4 380.8,497.6 381.9,499.9 382.9,502.1 383.9,504.3 385.0,506.4 386.0,508.6 387.0,510.7 388.0,512.8 389.1,514.8 390.1,516.9 391.1,518.9 392.2,520.8 393.2,522.8 394.2,524.7 395.3,526.6 396.3,528.4 397.3,530.3 398.4,532.0 399.4,533.8 400.4,535.5 401.5,537.2 402.5,538.9 403.5,540.5 404.6,542.2 405.6,543.7 406.6,545.3 407.7,546.8 408.7,548.2 409.7,549.7 410.8,551.1 411.8,552.4 412.8,553.8 413.8,555.1 414.9,556.3 415.9,557.5 416.9,558.7 418.0,559.9 419.0,561.0 420.0,562.0 421.1,563.1 422.1,564.1 423.1,565.0 424.2,565.9 425.2,566.8 426.2,567.6 427.3,568.4 428.3,569.2 429.3,569.9 430.4,570.5 431.4,571.2 432.4,571.8 433.5,572.3 434.5,572.8 435.5,573.2 436.6,573.6 437.6,574.0 438.6,574.3 439.6,574.6 440.7,574.8 441.7,575.0 442.7,575.1 443.8,575.2 444.8,575.3 445.8,575.3 446.9,575.2 447.9,575.1 448.9,575.0 450.0,574.8 451.0,574.5 452.0,574.2 453.1,573.9 454.1,573.5 455.1,573.0 456.2,572.5 457.2,572.0 458.2,571.4 459.3,570.7 460.3,570.0 461.3,569.3 462.4,568.4 463.4,567.6 464.4,566.7 465.4,565.7 466.5,564.6 467.5,563.6 468.5,562.4 469.6,561.2 470.6,560.0 471.6,558.7 472.7,557.3 473.7,555.9 474.7,554.4 475.8,552.9 476.8,551.3 477.8,549.6 478.9,547.9 479.9,546.1 480.9,544.3 482.0,542.4 483.0,540.4 484.0,538.4 485.1,536.3 486.1,534.2 487.1,532.0 488.2,529.7 489.2,527.4 490.2,525.0 491.2,522.6 492.3,520.0 493.3,517.5 494.3,514.8 495.4,512.1 496.4,509.3 497.4,506.5 498.5,503.6 499.5,500.6 500.5,497.6 501.6,494.5 502.6,491.3 503.6,488.0 504.7,484.7 505.7,481.4 506.7,477.9 507.8,474.4 508.8,470.8 509.8,467.1 510.9,463.4 511.9,459.6 512.9,455.7 514.0,451.8 515.0,447.8 516.0,443.7 517.0,439.5 518.1,435.3 519.1,431.0 520.1,426.6 521.2,422.2 522.2,417.7 523.2,413.1 524.3,408.4 525.3,403.6 526.3,398.8 527.4,393.9 528.4,388.9 529.4,383.8 530.5,378.7 531.5,373.5 532.5,368.2 533.6,362.8 534.6,357.4 535.6,351.9 536.7,346.3 537.7,340.6 538.7,334.8 539.8,328.9 540.8,323.0 541.8,317.0 542.8,310.9 543.9,304.7 544.9,298.5 545.9,292.1 547.0,285.7 548.0,279.2 549.0,272.6 550.1,265.9 551.1,259.2 552.1,252.3 553.2,245.4 554.2,238.4 555.2,231.3 556.3,224.1 557.3,216.8 558.3,209.4 559.4,202.0 560.4,194.5 561.4,186.8 562.5,179.1 563.5,171.3 564.5,163.4 565.6,155.4 566.6,147.4 567.6,139.2 568.6,130.9 569.7,122.6 570.7,114.1 571.7,105.6 572.8,97.0 573.8,88.3 574.8,79.5 575.9,70.6 576.9,61.6 577.9,52.5 579.0,43.3 580.0,34.0"/>
<circle cx="64.0" cy="408.0" r="4" fill="#d62728"/><circle cx="206.6" cy="408.0" r="4" fill="#d62728"/><circle cx="437.4" cy="406.5" r="4" fill="#d62728"/><circle cx="580.0" cy="34.0" r="4" fill="#d62728"/>
<circle cx="64.0" cy="408.0" r="4" fill="#1f77b4"/><circle cx="345.3" cy="408.0" r="4" fill="#1f77b4"/><circle cx="539.6" cy="329.9" r="4" fill="#1f77b4"/><circle cx="580.0" cy="34.0" r="4" fill="#1f77b4"/>
<line x1="586" y1="42" x2="610" y2="42" stroke="#111" stroke-width="3"/>
<text x="614" y="46" font-size="11">exact</text>
<line x1="586" y1="64" x2="610" y2="64" stroke="#d62728" stroke-width="3"/>
<text x="614" y="68" font-size="11">polynomial LGL (4 nodes)</text>
<line x1="586" y1="86" x2="610" y2="86" stroke="#1f77b4" stroke-width="3"/>
<text x="614" y="90" font-size="11">exp-FSBP (4 nodes)</text>
</svg>